<svg width="167" height="41" viewBox="0 0 167 41" fill="none" xmlns="http://www.w3.org/2000/svg">
<g opacity="0.5">
<path d="M9.5 31.5L0 12.5H19L9.5 31.5Z" fill="#FFC600"/>
<path d="M9.5 31.5L0 12.5H19L9.5 31.5Z" fill="#FFC600"/>
</g>
<g opacity="0.5">
<path d="M9.5 23.5L2 9.5H17L9.5 23.5Z" fill="#FFC600"/>
<path d="M9.5 23.5L2 9.5H17L9.5 23.5Z" fill="#FFC600"/>
</g>
<path d="M9.5 23.5L4 12.5H15L9.5 23.5Z" fill="#FFC600"/>
<path d="M9.5 23.5L4 12.5H15L9.5 23.5Z" fill="#FFC600"/>
<path d="M40.197 9.81101V29H36.5866V9.81101H40.197ZM49.3917 29.2499C48.3423 29.2499 47.4012 29.0833 46.5684 28.7501C45.7355 28.4087 45.0276 27.9381 44.4446 27.3385C43.8699 26.7388 43.4285 26.0434 43.1203 25.2521C42.8122 24.4526 42.6581 23.6031 42.6581 22.7036V22.2039C42.6581 21.1795 42.8039 20.2425 43.0954 19.393C43.3869 18.5435 43.8033 17.8064 44.3446 17.1818C44.8943 16.5571 45.5606 16.0782 46.3435 15.7451C47.1264 15.4036 48.0092 15.2329 48.992 15.2329C49.9498 15.2329 50.7993 15.3911 51.5405 15.7076C52.2818 16.0241 52.9022 16.4739 53.4019 17.0569C53.91 17.6398 54.2931 18.3394 54.5513 19.1556C54.8095 19.9635 54.9386 20.863 54.9386 21.8541V23.3532H44.1947V20.9546H51.4031V20.6798C51.4031 20.1801 51.3115 19.7345 51.1282 19.343C50.9533 18.9433 50.6868 18.6268 50.3287 18.3936C49.9706 18.1604 49.5125 18.0438 48.9545 18.0438C48.4798 18.0438 48.0717 18.1479 47.7302 18.3561C47.3887 18.5643 47.1097 18.8558 46.8932 19.2306C46.685 19.6054 46.5267 20.0468 46.4185 20.5548C46.3185 21.0546 46.2685 21.6042 46.2685 22.2039V22.7036C46.2685 23.245 46.3435 23.7447 46.4934 24.2028C46.6517 24.6608 46.8724 25.0564 47.1555 25.3896C47.447 25.7227 47.7968 25.9809 48.2049 26.1641C48.6214 26.3474 49.0919 26.439 49.6166 26.439C50.2662 26.439 50.8701 26.314 51.4281 26.0642C51.9944 25.806 52.4816 25.4187 52.8897 24.9024L54.6387 26.8013C54.3556 27.2094 53.9683 27.6008 53.4769 27.9756C52.9938 28.3504 52.4108 28.6585 51.7279 28.9001C51.045 29.1333 50.2662 29.2499 49.3917 29.2499ZM61.4099 26.3765L64.4081 15.4828H68.1685L63.6086 29H61.3349L61.4099 26.3765ZM59.3485 15.4828L62.3593 26.389L62.4218 29H60.1356L55.5757 15.4828H59.3485ZM74.3774 26.3765L77.3757 15.4828H81.136L76.5762 29H74.3025L74.3774 26.3765ZM72.3161 15.4828L75.3269 26.389L75.3893 29H73.1031L68.5433 15.4828H72.3161ZM89.8435 25.9517V19.9302C89.8435 19.4971 89.7728 19.1265 89.6312 18.8183C89.4896 18.5019 89.2689 18.2562 88.969 18.0813C88.6775 17.9064 88.2986 17.8189 87.8322 17.8189C87.4324 17.8189 87.0868 17.8897 86.7953 18.0313C86.5038 18.1645 86.2789 18.3603 86.1207 18.6185C85.9624 18.8683 85.8833 19.164 85.8833 19.5054H82.2854C82.2854 18.9308 82.4186 18.3853 82.6852 17.8689C82.9517 17.3525 83.3389 16.8986 83.847 16.5072C84.355 16.1074 84.9588 15.7951 85.6584 15.5702C86.3664 15.3453 87.1576 15.2329 88.0321 15.2329C89.0815 15.2329 90.0143 15.4078 90.8305 15.7576C91.6467 16.1074 92.288 16.6321 92.7544 17.3317C93.2291 18.0313 93.4665 18.9058 93.4665 19.9552V25.7394C93.4665 26.4806 93.5123 27.0886 93.6039 27.5633C93.6955 28.0297 93.8288 28.4378 94.0037 28.7876V29H90.3682C90.1933 28.6335 90.0601 28.1755 89.9685 27.6258C89.8852 27.0678 89.8435 26.5098 89.8435 25.9517ZM90.3183 20.7672L90.3433 22.8036H88.3319C87.8572 22.8036 87.4449 22.8577 87.0951 22.966C86.7453 23.0742 86.458 23.2283 86.2331 23.4282C86.0082 23.6198 85.8417 23.8446 85.7334 24.1028C85.6335 24.361 85.5835 24.6442 85.5835 24.9523C85.5835 25.2605 85.6543 25.5395 85.7959 25.7893C85.9375 26.0309 86.1415 26.2224 86.408 26.364C86.6745 26.4973 86.9869 26.5639 87.345 26.5639C87.8863 26.5639 88.3569 26.4556 88.7567 26.2391C89.1564 26.0225 89.4646 25.756 89.6811 25.4395C89.906 25.1231 90.0226 24.8232 90.0309 24.5401L90.9804 26.0642C90.8471 26.4057 90.6639 26.7596 90.4307 27.1261C90.2058 27.4925 89.9185 27.8382 89.5687 28.163C89.2189 28.4795 88.7983 28.7418 88.3069 28.95C87.8155 29.1499 87.2325 29.2499 86.5579 29.2499C85.7001 29.2499 84.9214 29.0791 84.2218 28.7377C83.5305 28.3879 82.9808 27.909 82.5727 27.301C82.1729 26.6847 81.9731 25.9851 81.9731 25.2022C81.9731 24.4943 82.1063 23.8654 82.3728 23.3158C82.6393 22.7661 83.0308 22.3038 83.5472 21.9291C84.0719 21.5459 84.7256 21.2586 85.5085 21.0671C86.2914 20.8672 87.1992 20.7672 88.232 20.7672H90.3183ZM113.38 22.966H117.115C117.04 24.1903 116.703 25.2771 116.103 26.2266C115.512 27.176 114.683 27.9173 113.617 28.4503C112.56 28.9833 111.285 29.2499 109.795 29.2499C108.629 29.2499 107.583 29.05 106.659 28.6502C105.734 28.2421 104.943 27.6591 104.285 26.9012C103.636 26.1433 103.14 25.2272 102.799 24.1528C102.457 23.0784 102.286 21.8749 102.286 20.5424V19.2806C102.286 17.948 102.461 16.7445 102.811 15.6701C103.169 14.5874 103.677 13.6671 104.335 12.9092C105.002 12.1513 105.797 11.5683 106.721 11.1602C107.646 10.7521 108.679 10.5481 109.82 10.5481C111.335 10.5481 112.614 10.8229 113.655 11.3726C114.704 11.9223 115.516 12.6802 116.091 13.6463C116.674 14.6124 117.024 15.7118 117.14 16.9444H113.393C113.351 16.2115 113.205 15.591 112.955 15.083C112.705 14.5666 112.326 14.1793 111.818 13.9211C111.319 13.6546 110.652 13.5214 109.82 13.5214C109.195 13.5214 108.649 13.638 108.183 13.8712C107.717 14.1044 107.325 14.4583 107.009 14.9331C106.692 15.4078 106.455 16.0075 106.297 16.732C106.147 17.4483 106.072 18.2895 106.072 19.2556V20.5424C106.072 21.4835 106.143 22.3122 106.284 23.0284C106.426 23.7364 106.642 24.336 106.934 24.8274C107.234 25.3104 107.617 25.6769 108.083 25.9268C108.558 26.1683 109.128 26.2891 109.795 26.2891C110.577 26.2891 111.223 26.1641 111.731 25.9143C112.239 25.6644 112.626 25.2938 112.893 24.8024C113.168 24.311 113.33 23.6989 113.38 22.966ZM118.777 22.3788V22.1164C118.777 21.1253 118.919 20.2134 119.202 19.3805C119.485 18.5393 119.897 17.8106 120.438 17.1943C120.98 16.578 121.646 16.0991 122.437 15.7576C123.229 15.4078 124.136 15.2329 125.161 15.2329C126.185 15.2329 127.097 15.4078 127.897 15.7576C128.696 16.0991 129.367 16.578 129.908 17.1943C130.458 17.8106 130.874 18.5393 131.157 19.3805C131.441 20.2134 131.582 21.1253 131.582 22.1164V22.3788C131.582 23.3616 131.441 24.2735 131.157 25.1147C130.874 25.9476 130.458 26.6763 129.908 27.301C129.367 27.9173 128.7 28.3962 127.909 28.7377C127.118 29.0791 126.21 29.2499 125.186 29.2499C124.161 29.2499 123.249 29.0791 122.45 28.7377C121.659 28.3962 120.988 27.9173 120.438 27.301C119.897 26.6763 119.485 25.9476 119.202 25.1147C118.919 24.2735 118.777 23.3616 118.777 22.3788ZM122.375 22.1164V22.3788C122.375 22.9451 122.425 23.474 122.525 23.9654C122.625 24.4568 122.783 24.8899 123 25.2646C123.224 25.6311 123.516 25.9184 123.874 26.1266C124.232 26.3349 124.669 26.439 125.186 26.439C125.685 26.439 126.114 26.3349 126.473 26.1266C126.831 25.9184 127.118 25.6311 127.335 25.2646C127.551 24.8899 127.709 24.4568 127.809 23.9654C127.918 23.474 127.972 22.9451 127.972 22.3788V22.1164C127.972 21.5668 127.918 21.0504 127.809 20.5673C127.709 20.076 127.547 19.6429 127.322 19.2681C127.106 18.885 126.818 18.5851 126.46 18.3686C126.102 18.1521 125.669 18.0438 125.161 18.0438C124.653 18.0438 124.22 18.1521 123.862 18.3686C123.512 18.5851 123.224 18.885 123 19.2681C122.783 19.6429 122.625 20.076 122.525 20.5673C122.425 21.0504 122.375 21.5668 122.375 22.1164ZM137.591 15.4828V29H133.981V15.4828H137.591ZM133.756 11.9598C133.756 11.4351 133.939 11.002 134.306 10.6605C134.672 10.319 135.163 10.1483 135.78 10.1483C136.388 10.1483 136.875 10.319 137.241 10.6605C137.616 11.002 137.804 11.4351 137.804 11.9598C137.804 12.4845 137.616 12.9176 137.241 13.259C136.875 13.6005 136.388 13.7712 135.78 13.7712C135.163 13.7712 134.672 13.6005 134.306 13.259C133.939 12.9176 133.756 12.4845 133.756 11.9598ZM144.087 18.3686V29H140.489V15.4828H143.863L144.087 18.3686ZM143.563 21.7666H142.588C142.588 20.7672 142.717 19.8677 142.976 19.0682C143.234 18.2603 143.596 17.5732 144.062 17.0069C144.529 16.4322 145.083 15.995 145.724 15.6951C146.374 15.387 147.098 15.2329 147.898 15.2329C148.531 15.2329 149.11 15.3245 149.634 15.5077C150.159 15.691 150.609 15.9825 150.983 16.3822C151.367 16.782 151.658 17.3109 151.858 17.9688C152.066 18.6268 152.17 19.4305 152.17 20.3799V29H148.547V20.3675C148.547 19.7678 148.464 19.3014 148.298 18.9683C148.131 18.6351 147.885 18.4019 147.56 18.2687C147.244 18.1271 146.853 18.0563 146.386 18.0563C145.903 18.0563 145.482 18.1521 145.124 18.3436C144.775 18.5352 144.483 18.8017 144.25 19.1432C144.025 19.4763 143.854 19.8677 143.738 20.3175C143.621 20.7672 143.563 21.2503 143.563 21.7666ZM162.215 25.2646C162.215 25.0065 162.14 24.7733 161.99 24.565C161.84 24.3568 161.561 24.1653 161.153 23.9904C160.753 23.8071 160.174 23.6406 159.416 23.4907C158.733 23.3407 158.096 23.1534 157.505 22.9285C156.922 22.6953 156.414 22.4163 155.981 22.0915C155.556 21.7666 155.223 21.3835 154.981 20.9421C154.74 20.4924 154.619 19.9802 154.619 19.4055C154.619 18.8392 154.74 18.3061 154.981 17.8064C155.231 17.3067 155.585 16.8653 156.043 16.4822C156.509 16.0907 157.076 15.7867 157.742 15.5702C158.417 15.3453 159.175 15.2329 160.016 15.2329C161.19 15.2329 162.198 15.4203 163.039 15.7951C163.889 16.1699 164.538 16.6862 164.988 17.3442C165.446 17.9938 165.675 18.7351 165.675 19.5679H162.077C162.077 19.2181 162.002 18.9058 161.852 18.6309C161.711 18.3478 161.486 18.1271 161.178 17.9688C160.878 17.8023 160.486 17.719 160.003 17.719C159.604 17.719 159.258 17.7898 158.966 17.9313C158.675 18.0646 158.45 18.2478 158.292 18.481C158.142 18.7059 158.067 18.9558 158.067 19.2306C158.067 19.4388 158.109 19.6262 158.192 19.7928C158.283 19.951 158.429 20.0968 158.629 20.23C158.829 20.3633 159.087 20.4882 159.404 20.6048C159.728 20.7131 160.128 20.813 160.603 20.9046C161.577 21.1045 162.448 21.3669 163.214 21.6917C163.98 22.0082 164.588 22.4413 165.038 22.9909C165.488 23.5323 165.713 24.2444 165.713 25.1272C165.713 25.7269 165.579 26.2766 165.313 26.7763C165.046 27.276 164.663 27.7132 164.163 28.088C163.664 28.4545 163.064 28.7418 162.364 28.95C161.673 29.1499 160.894 29.2499 160.028 29.2499C158.771 29.2499 157.705 29.025 156.83 28.5752C155.964 28.1255 155.306 27.555 154.856 26.8637C154.415 26.1641 154.194 25.4479 154.194 24.715H157.605C157.621 25.2063 157.746 25.6019 157.979 25.9018C158.221 26.2016 158.525 26.4181 158.891 26.5514C159.266 26.6847 159.67 26.7513 160.103 26.7513C160.57 26.7513 160.957 26.6888 161.265 26.5639C161.573 26.4306 161.806 26.2557 161.965 26.0392C162.131 25.8143 162.215 25.5561 162.215 25.2646Z" fill="#E1E1E6"/>
</svg>
